<svg width="1024" height="1024" viewBox="0 0 1024 1024" fill="none" xmlns="http://www.w3.org/2000/svg">
<path d="M512 0C372.832 0 355.488 0.672 301.024 2.976C246.336 5.664 209.344 14.144 176.704 26.816C142.543 39.7127 111.605 59.9045 86.048 85.984C59.8957 111.482 39.6927 142.436 26.88 176.64C14.208 209.28 5.72796 246.272 3.03996 300.96C0.575965 355.456 0.0639648 372.768 0.0639648 511.936C0.0639648 651.104 0.735965 668.448 3.03996 722.912C5.72796 777.44 14.208 814.592 26.88 847.232C39.7766 881.393 59.9685 912.331 86.048 937.888C111.545 964.04 142.5 984.243 176.704 997.056C209.344 1009.57 246.496 1018.21 301.024 1020.9C355.52 1023.36 372.832 1023.87 512 1023.87C651.168 1023.87 668.512 1023.2 722.976 1020.9C777.504 1018.21 814.656 1009.54 847.296 997.056C881.457 984.159 912.395 963.967 937.952 937.888C964.138 912.418 984.346 881.455 997.12 847.232C1009.63 814.592 1018.27 777.44 1020.96 722.912C1023.42 668.416 1023.94 651.104 1023.94 511.936C1023.94 372.768 1023.26 355.424 1020.96 300.96C1018.27 246.432 1009.6 209.088 997.12 176.64C984.223 142.479 964.031 111.541 937.952 85.984C912.482 59.7981 881.519 39.5897 847.296 26.816C814.656 14.144 777.504 5.664 722.976 2.976C668.48 0.512 651.168 0 512 0ZM512 92.16C648.672 92.16 664.992 92.832 719.008 95.136C768.832 97.472 795.968 105.792 813.984 112.832C836.257 121.054 856.415 134.139 872.992 151.136C889.96 167.642 902.996 187.755 911.136 209.984C918.176 228 926.496 255.136 928.832 304.96C931.136 358.976 931.808 375.328 931.808 511.968C931.808 648.608 931.136 664.96 928.64 718.976C925.952 768.8 917.632 795.936 910.624 813.952C900.928 837.984 890.112 854.784 872.256 872.96C855.624 889.85 835.478 902.873 813.248 911.104C795.456 918.144 767.936 926.464 717.92 928.8C663.616 931.104 647.616 931.776 510.592 931.776C373.568 931.776 357.6 931.104 303.232 928.608C253.408 925.92 225.92 917.6 207.904 910.592C183.584 900.896 166.912 890.08 149.056 872.224C131.04 854.208 119.584 837.056 110.752 813.216C103.584 795.424 95.392 767.904 92.736 717.888C90.912 664.224 90.048 647.584 90.048 511.2C90.048 374.88 90.912 358.208 92.736 303.872C95.392 253.856 103.584 226.4 110.752 208.544C119.584 184.192 131.072 167.552 149.056 149.536C166.88 131.712 183.584 120.192 207.904 111.168C225.92 104.16 252.736 95.84 302.752 93.344C357.056 91.392 373.056 90.688 509.888 90.688L512 92.16ZM512 249.184C477.483 249.171 443.302 255.961 411.41 269.164C379.518 282.367 350.54 301.726 326.133 326.133C301.726 350.54 282.367 379.518 269.164 411.41C255.961 443.302 249.171 477.483 249.184 512C249.171 546.517 255.961 580.698 269.164 612.59C282.367 644.482 301.726 673.46 326.133 697.867C350.54 722.274 379.518 741.633 411.41 754.836C443.302 768.039 477.483 774.829 512 774.816C546.517 774.829 580.698 768.039 612.59 754.836C644.482 741.633 673.46 722.274 697.867 697.867C722.274 673.46 741.633 644.482 754.836 612.59C768.039 580.698 774.829 546.517 774.816 512C774.829 477.483 768.039 443.302 754.836 411.41C741.633 379.518 722.274 350.54 697.867 326.133C673.46 301.726 644.482 282.367 612.59 269.164C580.698 255.961 546.517 249.171 512 249.184V249.184ZM512 682.656C417.664 682.656 341.344 606.336 341.344 512C341.344 417.664 417.664 341.344 512 341.344C606.336 341.344 682.656 417.664 682.656 512C682.656 606.336 606.336 682.656 512 682.656ZM846.848 238.688C846.831 254.997 840.34 270.633 828.802 282.159C817.263 293.686 801.621 300.16 785.312 300.16C777.248 300.16 769.262 298.572 761.812 295.486C754.362 292.4 747.592 287.876 741.89 282.174C736.188 276.472 731.664 269.702 728.578 262.252C725.492 254.801 723.904 246.816 723.904 238.752C723.904 230.688 725.492 222.703 728.578 215.252C731.664 207.802 736.188 201.032 741.89 195.33C747.592 189.628 754.362 185.104 761.812 182.018C769.262 178.932 777.248 177.344 785.312 177.344C819.136 177.344 846.848 204.864 846.848 238.688V238.688Z" fill="white"/>
</svg>
