<svg width="184" height="138" viewBox="0 0 184 138" fill="none" xmlns="http://www.w3.org/2000/svg">
<path d="M91.9558 137.264C131.362 137.264 163.307 135.399 163.307 133.098C163.307 130.798 131.362 128.932 91.9558 128.932C52.5495 128.932 20.6043 130.798 20.6043 133.098C20.6043 135.399 52.5495 137.264 91.9558 137.264Z" fill="#DAD3D3"/>
<path d="M184 120.483H0V120.575H184V120.483Z" fill="#E0E0E0"/>
<path d="M40.2666 124.896H19.0072V124.988H40.2666V124.896Z" fill="#E0E0E0"/>
<path d="M86.7229 122.897H77.0371V122.989H86.7229V122.897Z" fill="#E0E0E0"/>
<path d="M109.134 122.849H90.263V122.941H109.134V122.849Z" fill="#E0E0E0"/>
<path d="M145.055 123.953H140.458V124.045H145.055V123.953Z" fill="#E0E0E0"/>
<path d="M124.586 123.953H106.253V124.045H124.586V123.953Z" fill="#E0E0E0"/>
<path d="M47.472 124.896H43.8288V124.988H47.472V124.896Z" fill="#E0E0E0"/>
<path d="M163.973 123.953H148.057V124.045H163.973V123.953Z" fill="#E0E0E0"/>
<path d="M87.216 0H16.1478C15.7005 0.000412411 15.2649 0.143323 14.9043 0.408003C14.5437 0.672683 14.2768 1.04537 14.1422 1.472C14.0816 1.66366 14.0506 1.86346 14.0502 2.06448V101.969C14.0502 102.526 14.2711 103.06 14.6644 103.454C15.0577 103.848 15.5912 104.069 16.1478 104.07H87.216C87.7733 104.07 88.3078 103.849 88.7018 103.455C89.0959 103.061 89.3173 102.526 89.3173 101.969V2.10128C89.3173 1.54399 89.0959 1.00952 88.7018 0.615451C88.3078 0.221384 87.7733 0 87.216 0V0ZM89.2253 101.969C89.2243 102.502 89.0123 103.012 88.6357 103.389C88.2591 103.765 87.7486 103.977 87.216 103.978H16.1478C15.6156 103.977 15.1055 103.765 14.7294 103.389C14.3534 103.012 14.1422 102.501 14.1422 101.969V2.08288C14.1422 1.55062 14.3534 1.04011 14.7294 0.663403C15.1055 0.286696 15.6156 0.0745737 16.1478 0.0735989H87.216C87.7483 0.0755381 88.2582 0.287852 88.6346 0.664246C89.011 1.04064 89.2233 1.55058 89.2253 2.08288V101.969Z" fill="#E0E0E0"/>
<path d="M166.818 0H95.7573C95.2035 0.000937771 94.6723 0.220104 94.279 0.609994C93.8856 0.999884 93.6618 1.52908 93.656 2.08288V101.969C93.656 102.526 93.8774 103.061 94.2715 103.455C94.6655 103.849 95.2 104.07 95.7573 104.07H166.818C167.374 104.068 167.907 103.846 168.299 103.452C168.692 103.059 168.912 102.525 168.912 101.969V2.08288C168.907 1.53005 168.685 1.0014 168.293 0.611516C167.901 0.221628 167.371 0.00191525 166.818 0V0ZM168.827 101.969C168.826 102.502 168.614 103.012 168.238 103.389C167.861 103.765 167.351 103.977 166.818 103.978H95.7573C95.2244 103.978 94.7133 103.767 94.3365 103.39C93.9597 103.013 93.748 102.502 93.748 101.969V2.08288C93.749 1.55028 93.961 1.03978 94.3376 0.663179C94.7142 0.286576 95.2247 0.0745717 95.7573 0.0735989H166.818C167.35 0.0755381 167.86 0.287852 168.237 0.664246C168.613 1.04064 168.825 1.55058 168.827 2.08288V101.969Z" fill="#E0E0E0"/>
<path d="M136.539 18.0798H175.492C175.492 18.0798 173.14 13.8184 168.29 15.1358C168.29 15.1358 168.879 8.01504 165.055 6.87424C161.232 5.73344 159.167 10.1384 159.167 10.1384C159.167 10.1384 156.521 1.90624 151.524 2.93664C146.527 3.96704 144.469 12.5046 144.469 12.5046C144.469 12.5046 137.128 9.84768 136.539 18.0798Z" fill="#2D5D83"/>
<path d="M80.2203 32.016H119.188C119.188 32.016 116.833 27.7509 111.982 29.072C111.982 29.072 112.571 21.9512 108.748 20.8067C104.924 19.6622 102.86 24.0746 102.86 24.0746C102.86 24.0746 100.214 15.8424 95.2163 16.8691C90.2189 17.8958 88.1581 26.4371 88.1581 26.4371C88.1581 26.4371 80.8091 23.7838 80.2203 32.016Z" fill="#2D5D83"/>
<path d="M79.5138 5.75552H14.1827V120.483H79.5138V5.75552Z" fill="#2D5D83"/>
<path d="M68.6283 42.3936H27.2136V120.575H68.6283V42.3936Z" fill="#DAD3D3"/>
<path d="M66.0118 44.8776H30.1981V120.575H66.0118V44.8776Z" fill="#E6E6E6"/>
<path d="M81.88 6.59088H14.168V1.4904C14.3384 1.0467 14.6424 0.666815 15.0378 0.40316C15.4333 0.139506 15.9009 0.00506983 16.376 0.0183975H79.5653L79.5947 0.0919978L81.2544 4.82816L81.88 6.59088Z" fill="#DAD3D3"/>
<path d="M17.4506 9.67104C19.3224 9.67104 20.8398 8.29201 20.8398 6.59088C20.8398 4.88975 19.3224 3.51072 17.4506 3.51072C15.5787 3.51072 14.0613 4.88975 14.0613 6.59088C14.0613 8.29201 15.5787 9.67104 17.4506 9.67104Z" fill="#DAD3D3"/>
<path d="M24.2328 9.67104C26.1047 9.67104 27.6221 8.29201 27.6221 6.59088C27.6221 4.88975 26.1047 3.51072 24.2328 3.51072C22.361 3.51072 20.8435 4.88975 20.8435 6.59088C20.8435 8.29201 22.361 9.67104 24.2328 9.67104Z" fill="#DAD3D3"/>
<path d="M31.015 9.67104C32.8869 9.67104 34.4043 8.29201 34.4043 6.59088C34.4043 4.88975 32.8869 3.51072 31.015 3.51072C29.1432 3.51072 27.6258 4.88975 27.6258 6.59088C27.6258 8.29201 29.1432 9.67104 31.015 9.67104Z" fill="#DAD3D3"/>
<path d="M37.7973 9.67104C39.6691 9.67104 41.1866 8.29201 41.1866 6.59088C41.1866 4.88975 39.6691 3.51072 37.7973 3.51072C35.9254 3.51072 34.408 4.88975 34.408 6.59088C34.408 8.29201 35.9254 9.67104 37.7973 9.67104Z" fill="#DAD3D3"/>
<path d="M44.5795 9.67104C46.4514 9.67104 47.9688 8.29201 47.9688 6.59088C47.9688 4.88975 46.4514 3.51072 44.5795 3.51072C42.7077 3.51072 41.1902 4.88975 41.1902 6.59088C41.1902 8.29201 42.7077 9.67104 44.5795 9.67104Z" fill="#DAD3D3"/>
<path d="M51.3618 9.67104C53.2336 9.67104 54.751 8.29201 54.751 6.59088C54.751 4.88975 53.2336 3.51072 51.3618 3.51072C49.4899 3.51072 47.9725 4.88975 47.9725 6.59088C47.9725 8.29201 49.4899 9.67104 51.3618 9.67104Z" fill="#DAD3D3"/>
<path d="M58.1403 9.67104C60.0122 9.67104 61.5296 8.29201 61.5296 6.59088C61.5296 4.88975 60.0122 3.51072 58.1403 3.51072C56.2685 3.51072 54.751 4.88975 54.751 6.59088C54.751 8.29201 56.2685 9.67104 58.1403 9.67104Z" fill="#DAD3D3"/>
<path d="M64.9226 9.67104C66.7944 9.67104 68.3118 8.29201 68.3118 6.59088C68.3118 4.88975 66.7944 3.51072 64.9226 3.51072C63.0507 3.51072 61.5333 4.88975 61.5333 6.59088C61.5333 8.29201 63.0507 9.67104 64.9226 9.67104Z" fill="#DAD3D3"/>
<path d="M71.7048 9.67104C73.5767 9.67104 75.0941 8.29201 75.0941 6.59088C75.0941 4.88975 73.5767 3.51072 71.7048 3.51072C69.833 3.51072 68.3155 4.88975 68.3155 6.59088C68.3155 8.29201 69.833 9.67104 71.7048 9.67104Z" fill="#DAD3D3"/>
<path d="M81.88 6.59088C81.88 8.29104 80.3602 9.67104 78.487 9.67104C76.6139 9.67104 75.0941 8.29104 75.0941 6.59088C75.0941 4.89072 76.6139 3.51072 78.487 3.51072C79.0166 3.50323 79.541 3.61629 80.0204 3.84135C80.4999 4.0664 80.9218 4.39756 81.2544 4.80976L81.88 6.59088Z" fill="#DAD3D3"/>
<path d="M79.5138 15.7136H14.1827V16.7882H79.5138V15.7136Z" fill="#FAFAFA"/>
<path d="M130.191 96.1658H79.5174V98.4437H130.191V96.1658Z" fill="#E0E0E0"/>
<path d="M90.1747 120.48H82.524V84.9712L86.3475 81.7034L90.1747 84.9712V120.48Z" fill="#E6E6E6"/>
<path d="M101.134 120.48H93.483V84.9712L97.3102 81.7034L101.134 84.9712V120.48Z" fill="#E6E6E6"/>
<path d="M112.096 120.48H104.446V84.9712L108.269 81.7034L112.096 84.9712V120.48Z" fill="#E6E6E6"/>
<path d="M123.056 120.48H115.405V84.9712L119.232 81.7034L123.056 84.9712V120.48Z" fill="#E6E6E6"/>
<path d="M134.015 120.48H126.368V84.9712L130.191 81.7034L134.015 84.9712V120.48Z" fill="#E6E6E6"/>
<path d="M54.9608 12.8874C54.9608 12.8874 54.2506 11.1504 49.875 11.6656C45.4995 12.1808 45.0469 17.9731 42.861 22.091C40.675 26.209 38.353 28.2072 38.353 28.2072C38.353 28.2072 38.0328 30.717 42.7947 32.1338C47.5566 33.5506 56.8891 31.1843 56.8891 31.1843C56.8891 31.1843 58.0962 20.2216 56.304 16.8765C54.5118 13.5314 54.9608 12.8874 54.9608 12.8874Z" fill="#263238"/>
<path d="M67.7525 122.393L61.824 122.761C61.824 122.761 59.3106 99.9157 56.5432 83.2821C56.5432 83.2269 56.5432 83.1643 56.5174 83.1018C55.384 76.3122 54.2101 70.5898 53.1502 67.907C53.1502 67.907 51.7886 89.2032 51.3838 98.6571C50.979 108.111 49.0912 124.653 49.0912 124.653L43.6117 125.466C43.6117 125.466 42.7064 92.5373 43.2437 86.3181C43.781 80.0989 41.3338 57.0621 45.551 51.3581H60.8046C60.8046 51.3581 66.711 83.72 67.1379 92.6919C67.5648 101.664 67.7525 122.393 67.7525 122.393Z" fill="#263238"/>
<path d="M47.8032 124.726L47.7149 126.493L47.5088 130.581L44.4397 131.037L44.3698 126.625L44.344 124.929L47.8032 124.726Z" fill="#FF8B7B"/>
<path d="M66.435 129.205L63.0016 130.162C63.0016 130.162 62.9207 128.097 62.8397 126.114C62.7882 124.837 62.7366 123.593 62.7035 122.956C62.7035 122.71 62.6814 122.559 62.6741 122.526L66.3762 122.158V123.32L66.4019 125.948L66.435 129.205Z" fill="#FF8B7B"/>
<path d="M48.7453 129.676C48.7453 129.676 49.3157 127.391 50.2173 127.505C51.1189 127.619 48.7453 129.676 48.7453 129.676Z" stroke="#B22222" stroke-miterlimit="10"/>
<path d="M49.0029 129.676C49.0029 129.676 51.1483 128.163 51.5458 128.94C51.9432 129.716 49.0029 129.676 49.0029 129.676Z" stroke="#B22222" stroke-miterlimit="10"/>
<path d="M67.7525 129.908C67.7525 129.908 68.2309 127.49 68.7718 127.49C69.3128 127.49 67.7525 129.908 67.7525 129.908Z" stroke="#B22222" stroke-miterlimit="10"/>
<path d="M67.6384 130.658C67.6384 130.658 68.897 128.182 69.5557 128.715C70.2144 129.249 67.6384 130.658 67.6384 130.658Z" stroke="#B22222" stroke-miterlimit="10"/>
<path d="M51.4243 132.642C51.4243 132.642 44.8813 132.811 44.4066 132.752C43.9318 132.693 43.4056 132.668 43.3688 132.152C43.3688 131.902 43.5933 130.382 43.6301 129.852C43.6669 129.323 43.5344 129.047 44.2005 128.877C44.8666 128.708 48.1013 128.333 48.4914 128.734C48.8814 129.135 50.2136 130.662 51.1998 130.839C52.1861 131.015 53.0141 130.945 53.084 131.505C53.1539 132.064 53.176 132.601 51.4243 132.642Z" fill="#263238"/>
<path d="M70.2623 132.642C70.2623 132.642 63.7229 132.811 63.2445 132.752C62.7661 132.693 62.2951 132.55 62.2178 132.311C62.1405 132.072 62.4349 130.382 62.468 129.852C62.5011 129.323 62.3723 129.047 63.0384 128.877C63.7045 128.708 66.9392 128.333 67.3293 128.734C67.7194 129.135 69.0515 130.662 70.0415 130.839C71.0314 131.015 71.852 130.945 71.9219 131.505C71.9919 132.064 72.0139 132.601 70.2623 132.642Z" fill="#263238"/>
<path opacity="0.3" d="M56.5174 83.0981C55.384 76.3085 54.2101 70.5861 53.1502 67.9034L53.8531 64.0467C53.8531 64.0467 55.6747 77.8099 56.5174 83.0981Z" fill="black"/>
<path opacity="0.2" d="M47.7958 124.726L47.7075 126.493C46.8464 126.526 45.1315 126.588 44.3624 126.625L44.3366 124.929L47.7958 124.726Z" fill="black"/>
<path opacity="0.2" d="M66.4093 125.944L62.8397 126.114C62.7882 124.837 62.7366 123.593 62.7035 122.956L66.3835 123.324L66.4093 125.944Z" fill="black"/>
<path d="M68.7645 122.154L68.2162 124.954L61.6805 125.462L60.823 122.154H68.7645Z" fill="#B22222"/>
<path d="M49.9707 123.067L49.3966 125.834L42.5739 126.158L42.5776 123.067H49.9707Z" fill="#B22222"/>
<path d="M70.207 42.8094C68.735 43.5123 64.687 44.2814 64.687 44.2814C64.687 44.2814 62.0374 37.433 61.3382 33.5395C61.1188 32.1476 60.454 30.8644 59.4435 29.8824C58.4329 28.9004 57.1312 28.2726 55.7336 28.0931C53.9451 27.8613 46.3938 27.9386 43.7442 28.4832C41.0946 29.0278 40.6346 32.9176 40.399 35.2544C40.1635 37.5912 38.6878 46.2944 39.9317 48.8704C41.1755 51.4464 45.5363 50.4234 45.5363 50.4234V51.3581H60.7936L60.4256 44.2189C60.4256 44.2189 61.8682 48.0093 64.1056 48.1638C66.343 48.3184 71.4214 44.5869 71.4214 44.5869L70.207 42.8094ZM43.343 46.8022C43.343 46.8022 43.5123 42.3568 43.8141 41.0762L44.2741 43.4498L44.9218 46.8022H43.343Z" fill="#B22222"/>
<path d="M53.0472 45.7939L55.4466 42.8904L58.8138 42.3752L59.329 45.367L56.753 46.3091C56.753 46.3091 55.5128 47.8032 53.0362 47.5456L53.0472 45.7939Z" fill="#FF8B7B"/>
<path d="M70.207 42.8094L71.4546 40.5205L74.4979 39.2398L75.6498 42.3568L73.129 43.3394C73.129 43.3394 72.4702 44.7893 71.4546 44.6016L70.207 42.8094Z" fill="#FF8B7B"/>
<path d="M53.0987 25.3037C53.0822 25.5684 53.0822 25.8339 53.0987 26.0986C53.1355 26.6027 53.0398 27.5264 54.0298 28.0122C53.5182 29.1162 52.2854 31.8835 51.5384 32.8219C50.4013 31.8909 47.7296 28.1336 47.7296 28.1336C47.7296 28.1336 49.6064 26.0986 48.2595 22.264C48.2595 22.264 46.368 20.8803 46.747 20.1186C47.1813 19.2317 48.4141 19.7101 48.6754 20.0854C48.3994 19.6806 47.115 15.2389 48.6754 13.605C49.6469 12.5856 50.6184 12.5746 52.429 12.501H52.5798C53.739 12.4605 54.6002 12.501 54.6002 12.501C54.9937 12.9249 55.3404 13.3901 55.6342 13.8883C56.4553 15.2288 56.9588 16.7393 57.1062 18.3043C57.4485 21.9512 56.7309 24.9062 53.0987 25.3037Z" fill="#FF8B7B"/>
<path d="M54.0997 20.7699C54.0997 20.7699 52.4511 21.3293 51.8512 20.0781" stroke="#263238" stroke-width="0.5" stroke-linecap="round" stroke-linejoin="round"/>
<path d="M52.1088 15.5075C51.8331 15.4994 51.5606 15.5689 51.3224 15.7082C51.0843 15.8474 50.8901 16.0508 50.7619 16.295" stroke="#263238" stroke-linecap="round" stroke-linejoin="round"/>
<path d="M56.304 15.1285C56.1704 14.9823 56.0086 14.8645 55.8284 14.7823C55.6482 14.7001 55.4532 14.6552 55.2552 14.6501" stroke="#263238" stroke-linecap="round" stroke-linejoin="round"/>
<path d="M54.7878 20.0928L54.464 17.3365L56.0869 19.4194C56.0869 19.4194 55.9286 20.137 54.7878 20.0928Z" fill="#FF5652"/>
<path d="M52.1235 17.3586C52.1419 17.6382 52.3075 17.8554 52.4915 17.8443C52.6755 17.8333 52.8043 17.5941 52.7822 17.3107C52.7602 17.0274 52.6019 16.8139 52.4142 16.8286C52.2266 16.8434 52.1014 17.0899 52.1235 17.3586Z" fill="#263238"/>
<path d="M55.3325 16.8986C55.3546 17.1819 55.5165 17.399 55.7005 17.3843C55.8845 17.3696 56.0133 17.1341 55.9912 16.8507C55.9691 16.5674 55.8072 16.3539 55.6232 16.3686C55.4392 16.3834 55.3141 16.6189 55.3325 16.8986Z" fill="#263238"/>
<path d="M47.5566 18.0467C47.5566 18.0467 45.6762 15.5259 47.2291 13.892C48.2006 12.8726 50.8134 12.2066 52.6203 12.1293C52.5798 12.5562 52.6203 16.295 47.5566 18.0467Z" fill="#263238"/>
<path d="M55.6637 13.8994C54.5084 13.7826 53.4241 13.2871 52.5798 12.4899L52.4363 12.339C53.1611 12.3091 53.887 12.3609 54.6002 12.4936V12.4936C54.9937 12.9176 55.3404 13.3827 55.6342 13.881L55.6637 13.8994Z" fill="#263238"/>
<path opacity="0.2" d="M53.1098 26.0986C52.31 25.8554 51.6004 25.3802 51.071 24.7333C51.7049 25.0496 52.3929 25.2431 53.0987 25.3037C53.0859 25.5686 53.0896 25.8341 53.1098 26.0986V26.0986Z" fill="black"/>
<path opacity="0.2" d="M44.2778 43.4498L43.8178 41.0762V37.6685C43.8178 37.6685 44.3477 41.2639 44.2778 43.4498Z" fill="black"/>
<path d="M111.908 32.4252L85.0836 33.9437L86.2523 54.5886L113.077 53.0701L111.908 32.4252Z" fill="#B22222"/>
<path opacity="0.3" d="M111.908 32.4252L85.0836 33.9437L86.2523 54.5886L113.077 53.0701L111.908 32.4252Z" fill="black"/>
<path d="M102.159 32.979L75.3342 34.4975L76.5029 55.1424L103.328 53.6238L102.159 32.979Z" fill="#B22222"/>
<path opacity="0.3" d="M102.159 32.979L75.3342 34.4975L76.5029 55.1424L103.328 53.6238L102.159 32.979Z" fill="white"/>
<path opacity="0.3" d="M105.477 34.7631L99.7513 35.1066L99.8672 37.0386L105.593 36.6951L105.477 34.7631Z" fill="black"/>
<path opacity="0.5" d="M82.726 36.6626L77.0091 36.9862L77.1859 40.1092L82.9028 39.7856L82.726 36.6626Z" fill="white"/>
<path opacity="0.3" d="M84.7227 44.8065L75.9489 45.3032L76.0868 47.7391L84.8606 47.2424L84.7227 44.8065Z" fill="black"/>
<path d="M119.659 15.4082L118.187 17.285C118.595 17.5696 119.064 17.7549 119.556 17.8259L119.659 15.4082Z" fill="#A02724"/>
<path d="M145.066 130.511L140.789 130.268L139.921 126.621L139.446 124.623L139.27 123.887L142.56 123.663L142.795 123.644L143.494 125.76L145.066 130.511Z" fill="#B55B52"/>
<path d="M120.476 131.111C120.557 131.402 116.505 130.883 116.505 130.883L116.362 127.479L116.251 124.851V124.708H116.284L120.399 125.116C120.399 125.116 120.399 126.22 120.399 127.475C120.406 129.087 120.428 130.953 120.476 131.111Z" fill="#B55B52"/>
<path d="M129.058 25.2779C129.058 25.2779 123.28 26.8419 123.707 25.7085C123.922 25.0225 124.008 24.3025 123.961 23.5851C123.961 23.1141 123.902 22.7792 123.902 22.7792C121.812 22.9006 120.406 21.3882 119.78 19.5261C118.974 17.1378 119.269 14.4698 120.248 12.2029C120.325 12.0189 120.546 11.2387 120.741 11.143L123.008 10.0979C123.008 10.0979 125.216 11.5442 126.364 12.4421C127.512 13.34 128.436 17.5131 128.436 20.7589C128.436 24.0046 129.058 25.2779 129.058 25.2779Z" fill="#B55B52"/>
<path d="M119.486 14.72C119.384 14.7479 119.293 14.8075 119.227 14.8901C119.161 14.9728 119.123 15.0743 119.118 15.18C119.103 15.2782 119.118 15.3787 119.161 15.4681C119.205 15.5575 119.274 15.6316 119.361 15.6805L119.486 14.72Z" fill="#263238"/>
<path d="M119.486 12.8506C119.726 12.8452 119.963 12.9104 120.167 13.0382" stroke="#263238" stroke-linecap="round" stroke-linejoin="round"/>
<path d="M121.495 18.8232C121.495 18.8232 123.173 21.4434 125.845 22.0432C128.517 22.643 129.359 21.7157 129.716 20.2032C130.026 18.7771 130.71 17.4596 131.7 16.387C132.624 15.4339 132.068 12.8469 130.894 10.7198C130.894 10.7198 132.152 9.66369 130.125 8.64801C128.097 7.63233 127.35 9.32145 125.591 8.33521C123.832 7.34897 126.18 7.02145 124.52 10.0979C122.86 13.1744 121.944 10.937 121.698 12.3059C121.451 13.6749 120.167 16.0522 121.495 18.8232Z" fill="#263238"/>
<path d="M121.698 12.9426C121.532 12.8874 116.211 10.9627 116.159 10.0906C116.108 9.21841 120.284 10.8045 120.443 10.867L121.521 12.5709L121.698 12.9426Z" fill="#B22222"/>
<path d="M132.436 15.0512C132.384 15.2094 132.068 16.2582 131.932 16.2582L131.486 16.2325C131.072 16.1981 130.66 16.1503 130.25 16.089C129.797 16.019 129.352 15.9307 128.914 15.8277H128.896C128.45 15.721 128.012 15.6032 127.586 15.4597C126.538 15.1433 125.509 14.7661 124.505 14.3299V14.3299C123.939 14.0834 123.438 13.8442 123.033 13.6381C122.205 13.2259 121.712 12.9352 121.712 12.9352L121.639 12.8138L121.337 12.339L120.693 11.3197L120.472 10.9774V10.9517C120.462 10.9206 120.462 10.8871 120.472 10.856C120.494 10.4659 121.293 9.384 121.436 9.2C122.027 8.41002 122.78 7.75514 123.644 7.27904C124.829 6.624 126.165 6.91104 127.424 7.13184C127.84 7.21829 128.246 7.34906 128.634 7.52192V7.52192L128.881 7.62864L128.929 7.65072C128.973 7.67648 129.021 7.69488 129.065 7.71696L129.146 7.75744C130.081 8.19541 130.932 8.79457 131.659 9.52752C133.315 11.3859 132.642 14.4514 132.436 15.0512Z" fill="#B22222"/>
<path d="M130.636 27.2541C130.636 27.2541 130.371 25.4141 129.794 25.0461C129.216 24.6781 123.475 24.7333 122.581 25.3626C121.687 25.9918 121.845 28.049 121.845 28.049L130.636 27.2541Z" fill="#B22222"/>
<path d="M120.446 15.916C120.446 15.916 121.425 14.6501 122.474 15.4339C123.523 16.2178 122.691 18.0762 121.458 18.5987C121.458 18.5987 119.865 19.1176 119.659 17.4947C119.453 15.8718 120.446 15.916 120.446 15.916Z" fill="#B55B52"/>
<path d="M116.52 59.973C116.52 59.973 114.33 80.9232 113.719 90.5575C113.108 100.192 115.353 124.829 115.353 124.829H120.678C120.678 124.829 121.289 100.354 122.209 93.012C123.129 85.6704 126.184 75.716 126.184 75.716C126.184 75.716 128.024 91.4701 129.864 97.8954C131.704 104.321 137.68 123.95 137.68 123.95L143.811 122.772C143.811 122.772 136.451 97.5899 136.451 89.7883C136.451 81.9867 136.521 66.2363 134.688 59.9803L116.52 59.973Z" fill="#B22222"/>
<path opacity="0.3" d="M143.8 122.78L137.672 123.961C137.672 123.961 131.7 104.332 129.86 97.9064C128.848 94.3736 127.84 88.0109 127.137 83.0024C126.548 78.9139 126.18 75.727 126.18 75.727C126.18 75.727 123.122 85.663 122.202 93.023C121.282 100.383 120.675 124.84 120.675 124.84H115.353C115.353 124.84 113.108 100.206 113.719 90.5722C114.33 80.9379 116.52 59.984 116.52 59.984H134.67C136.51 66.24 136.436 82.0088 136.436 89.792C136.436 97.5752 143.8 122.78 143.8 122.78Z" fill="black"/>
<path opacity="0.3" d="M127.133 83.0024C126.548 78.9139 126.18 75.727 126.18 75.727L126.548 70.0083L127.133 83.0024Z" fill="black"/>
<path d="M114.776 123.806H121.157L120.844 126.434H115.026L114.776 123.806Z" fill="#263238"/>
<path d="M136.903 123.424L143.803 120.859L144.676 124.59L137.941 126.434L136.903 123.424Z" fill="#263238"/>
<path opacity="0.2" d="M142.56 123.663L139.446 124.623L139.921 126.621L143.494 125.76L142.56 123.663Z" fill="black"/>
<path opacity="0.2" d="M120.399 127.49H116.351L116.24 124.862L116.266 124.723L120.38 125.131C120.38 125.131 120.391 126.22 120.399 127.49Z" fill="black"/>
<path d="M114.404 132.417C114.43 132.487 111.857 130.99 112.564 130.29C113.27 129.591 114.404 132.417 114.404 132.417Z" stroke="#B22222" stroke-miterlimit="10"/>
<path d="M114.772 132.311C114.753 132.384 113.337 129.768 114.301 129.536C115.265 129.304 114.772 132.311 114.772 132.311Z" stroke="#B22222" stroke-miterlimit="10"/>
<path d="M140.197 130.828C140.197 130.828 139.354 128.116 138.537 128.561C137.72 129.006 140.197 130.828 140.197 130.828Z" stroke="#B22222" stroke-miterlimit="10"/>
<path d="M139.969 131.063C139.969 131.063 138.066 128.962 137.511 129.698C136.955 130.434 139.969 131.063 139.969 131.063Z" stroke="#B22222" stroke-miterlimit="10"/>
<path d="M145.224 130.261H140.653C140.653 130.261 138.011 131.851 136.852 131.998C135.693 132.145 135.012 132.215 135.045 133.047C135.078 133.878 135.781 133.952 138.155 133.915C140.528 133.878 145.239 134.169 145.75 133.698C146.262 133.227 145.938 132.34 145.224 130.261Z" fill="#263238"/>
<path d="M120.476 130.828L116.06 130.861C116.06 130.861 113.418 132.451 112.262 132.598C111.107 132.745 110.422 132.815 110.452 133.647C110.481 134.478 111.188 134.552 113.565 134.515C115.942 134.478 120.134 134.82 120.645 134.349C121.157 133.878 120.873 133.106 120.476 130.828Z" fill="#263238"/>
<path opacity="0.3" d="M120.443 10.867C120.557 11.4522 120.675 11.9011 121.642 12.9205C120.413 12.4642 116.203 10.8376 116.159 10.0906C116.115 9.34352 119.383 10.4659 120.443 10.867Z" fill="black"/>
<path opacity="0.3" d="M120.443 10.959C120.432 10.928 120.432 10.8944 120.443 10.8634V10.8634C120.443 10.8634 120.443 10.9038 120.443 10.9811V10.959Z" fill="black"/>
<path opacity="0.3" d="M121.698 12.9426L121.584 12.8984C121.589 12.883 121.597 12.8682 121.606 12.8542L121.698 12.9426Z" fill="black"/>
<path d="M132.436 15.0512C132.384 15.2094 132.068 16.2582 131.932 16.2582L131.486 16.2325C131.072 16.1981 130.66 16.1503 130.25 16.089C129.797 16.019 129.352 15.9307 128.914 15.8277H128.896C128.45 15.721 128.012 15.6032 127.586 15.4597C126.538 15.1433 125.509 14.7661 124.505 14.3299V14.3299C123.939 14.0834 123.438 13.8442 123.033 13.6381C122.205 13.2259 121.712 12.9352 121.712 12.9352L121.639 12.8138L121.337 12.339L120.693 11.3197L120.472 10.9774V10.9517C120.462 10.9206 120.462 10.8871 120.472 10.856C120.494 10.4659 121.293 9.384 121.436 9.2C122.027 8.41002 122.78 7.75514 123.644 7.27904C124.829 6.624 126.165 6.91104 127.424 7.13184C127.84 7.21829 128.246 7.34906 128.634 7.52192V7.52192L128.881 7.62864L128.929 7.65072C128.973 7.67648 129.021 7.69488 129.065 7.71696L129.146 7.75744C130.081 8.19541 130.932 8.79457 131.659 9.52752C133.315 11.3859 132.642 14.4514 132.436 15.0512Z" fill="#B22222"/>
<path opacity="0.2" d="M125.197 22.4259C124.806 22.8335 124.393 23.2205 123.961 23.5851C123.961 23.1141 123.902 22.7792 123.902 22.7792C124.346 22.7116 124.78 22.5931 125.197 22.4259V22.4259Z" fill="black"/>
<path d="M116.52 60.179V41.3301L113.079 39.928C113.079 39.928 113.738 29.8706 118.636 28.2845C123.534 26.6984 132.252 26.0323 134.651 28.2845C136.167 29.716 136.37 32.0123 136.425 33.9811C136.543 37.9923 135.494 41.9152 135.262 45.9043C135.078 49.1501 134.968 52.3958 134.894 55.6453C134.894 55.8955 134.798 60.179 134.791 60.179H116.52Z" fill="#263238"/>
<path d="M118.404 41.9741C118.404 41.9741 115.857 50.3866 113.34 50.9128C110.823 51.439 102.227 46.747 102.227 46.747H98.3885L97.8438 43.3725C97.8438 43.3725 101.417 42.0477 103.798 43.6338C103.798 43.6338 109.359 46.0589 111.21 46.7654L113.892 40.2739L118.404 41.9741Z" fill="#B55B52"/>
</svg>
