<svg width="1024" height="1024" viewBox="0 0 1024 1024" fill="none" xmlns="http://www.w3.org/2000/svg">
<path d="M672 640C663.513 640 655.374 643.371 649.373 649.373C643.371 655.374 640 663.513 640 672C640 680.487 643.371 688.626 649.373 694.627C655.374 700.629 663.513 704 672 704H800C808.487 704 816.626 700.629 822.627 694.627C828.629 688.626 832 680.487 832 672C832 663.513 828.629 655.374 822.627 649.373C816.626 643.371 808.487 640 800 640H672ZM64 320C64 286.052 77.4857 253.495 101.49 229.49C125.495 205.486 158.052 192 192 192H832C865.948 192 898.505 205.486 922.51 229.49C946.514 253.495 960 286.052 960 320V704C960 737.948 946.514 770.505 922.51 794.51C898.505 818.514 865.948 832 832 832H192C158.052 832 125.495 818.514 101.49 794.51C77.4857 770.505 64 737.948 64 704V320ZM896 320C896 303.026 889.257 286.748 877.255 274.745C865.252 262.743 848.974 256 832 256H192C175.026 256 158.747 262.743 146.745 274.745C134.743 286.748 128 303.026 128 320V384H896V320ZM128 704C128 720.974 134.743 737.252 146.745 749.255C158.747 761.257 175.026 768 192 768H832C848.974 768 865.252 761.257 877.255 749.255C889.257 737.252 896 720.974 896 704V448H128V704Z" fill="#B22222"/>
</svg>
