<svg width="512" height="512" viewBox="0 0 512 512" fill="none" xmlns="http://www.w3.org/2000/svg">
<path d="M253.924 127.592C241.266 127.592 228.892 131.346 218.367 138.378C207.843 145.41 199.64 155.406 194.796 167.1C189.952 178.795 188.684 191.663 191.154 204.078C193.623 216.493 199.719 227.896 208.669 236.847C217.62 245.797 229.023 251.893 241.438 254.362C253.853 256.832 266.721 255.564 278.416 250.72C290.11 245.876 300.106 237.673 307.138 227.149C314.17 216.624 317.924 204.25 317.924 191.592C317.905 174.624 311.156 158.357 299.157 146.359C287.159 134.36 270.892 127.611 253.924 127.592V127.592ZM253.924 223.592C247.595 223.592 241.408 221.715 236.146 218.199C230.883 214.683 226.782 209.685 224.36 203.838C221.938 197.991 221.304 191.557 222.539 185.349C223.774 179.142 226.821 173.44 231.297 168.965C235.772 164.489 241.474 161.442 247.681 160.207C253.888 158.972 260.323 159.606 266.17 162.028C272.017 164.45 277.015 168.551 280.531 173.814C284.047 179.076 285.924 185.263 285.924 191.592C285.914 200.076 282.54 208.21 276.541 214.209C270.542 220.208 262.408 223.582 253.924 223.592V223.592Z" fill="white"/>
<path d="M376.906 68.515C346.499 38.1154 305.909 20.0568 262.97 17.8246C220.031 15.5923 177.787 29.3446 144.391 56.4272C110.996 83.5099 88.8157 122.003 82.1322 164.477C75.4487 206.952 84.7354 250.396 108.2 286.426L229.107 472.039C231.798 476.169 235.476 479.563 239.81 481.912C244.144 484.261 248.995 485.491 253.925 485.491C258.854 485.491 263.705 484.261 268.039 481.912C272.373 479.563 276.051 476.169 278.742 472.039L399.653 286.426C421.425 253.003 431.047 213.112 426.906 173.438C422.765 133.765 405.112 96.7208 376.906 68.515V68.515ZM372.841 268.959L253.925 451.509L135.008 268.959C98.608 213.08 106.415 138.3 153.571 91.142C166.75 77.9631 182.395 67.509 199.614 60.3766C216.832 53.2442 235.287 49.5732 253.925 49.5732C272.563 49.5732 291.018 53.2442 308.236 60.3766C325.455 67.509 341.1 77.9631 354.279 91.142C401.435 138.3 409.241 213.08 372.841 268.959Z" fill="white"/>
</svg>
