<svg width="72" height="55" viewBox="0 0 72 55" stroke="current" fill="current" xmlns="http://www.w3.org/2000/svg">
<path d="M34 34.3077C34 38.3242 35.1055 42.2505 37.1768 45.59C39.248 48.9296 42.1919 51.5325 45.6363 53.0696C49.0806 54.6066 52.8707 55.0088 56.5272 54.2252C60.1837 53.4416 63.5424 51.5075 66.1786 48.6674C68.8148 45.8273 70.6101 42.2088 71.3374 38.2695C72.0647 34.3302 71.6914 30.247 70.2647 26.5363C68.838 22.8255 66.422 19.6539 63.3222 17.4225C60.2223 15.191 56.5779 14 52.8498 14L52.8498 20.9541C55.3013 20.9541 57.6977 21.7372 59.7361 23.2045C61.7744 24.6719 63.3631 26.7574 64.3013 29.1975C65.2394 31.6375 65.4849 34.3225 65.0066 36.9129C64.5283 39.5032 63.3478 41.8826 61.6144 43.7501C59.8809 45.6177 57.6723 46.8895 55.2679 47.4047C52.8635 47.92 50.3713 47.6555 48.1064 46.6448C45.8416 45.6341 43.9057 43.9226 42.5438 41.7266C41.1818 39.5306 40.4548 36.9488 40.4548 34.3077H34Z" fill="current"/>
<path d="M63.619 46.5L72 55H63.619L56 49.2609L63.619 46.5Z" fill="current"/>
<path d="M17 20.3077C17 24.3242 18.1055 28.2505 20.1768 31.59C22.248 34.9296 25.1919 37.5325 28.6363 39.0696C32.0806 40.6066 35.8707 41.0088 39.5272 40.2252C43.1837 39.4416 46.5424 37.5075 49.1786 34.6674C51.8148 31.8273 53.6101 28.2088 54.3374 24.2695C55.0647 20.3302 54.6914 16.247 53.2647 12.5363C51.838 8.82553 49.422 5.6539 46.3222 3.42246C43.2223 1.19103 39.5779 -4.78961e-08 35.8498 0L35.8498 6.95406C38.3013 6.95406 40.6977 7.73723 42.7361 9.20455C44.7744 10.6719 46.3631 12.7574 47.3013 15.1975C48.2394 17.6375 48.4849 20.3225 48.0066 22.9129C47.5283 25.5032 46.3478 27.8826 44.6144 29.7501C42.8809 31.6177 40.6723 32.8895 38.2679 33.4047C35.8635 33.92 33.3713 33.6555 31.1064 32.6448C28.8416 31.6341 26.9057 29.9226 25.5438 27.7266C24.1818 25.5306 23.4548 22.9488 23.4548 20.3077H17Z" fill="current"/>
<path d="M46.619 32.5L55 41H46.619L39 35.2609L46.619 32.5Z" fill="current"/>
<path d="M0 0H31V4H4.96L0 0Z" fill="current"/>
<path d="M7 6H31V10H11.5714L7 6Z" fill="current"/>
<path d="M14 12H31V16H17.9667L14 12Z" fill="current"/>
</svg>
