<svg width="249" height="55" viewBox="0 0 249 55" fill="current" xmlns="http://www.w3.org/2000/svg">
<path d="M34 34.3077C34 38.3242 35.1055 42.2505 37.1768 45.59C39.248 48.9296 42.1919 51.5325 45.6363 53.0696C49.0806 54.6066 52.8707 55.0088 56.5272 54.2252C60.1837 53.4416 63.5424 51.5075 66.1786 48.6674C68.8148 45.8273 70.6101 42.2088 71.3374 38.2695C72.0647 34.3302 71.6914 30.247 70.2647 26.5363C68.838 22.8255 66.422 19.6539 63.3222 17.4225C60.2223 15.191 56.5779 14 52.8498 14L52.8498 20.9541C55.3013 20.9541 57.6977 21.7372 59.7361 23.2045C61.7744 24.6719 63.3631 26.7574 64.3013 29.1975C65.2394 31.6375 65.4849 34.3225 65.0066 36.9129C64.5283 39.5032 63.3478 41.8826 61.6144 43.7501C59.8809 45.6177 57.6723 46.8895 55.2679 47.4047C52.8635 47.92 50.3713 47.6555 48.1064 46.6448C45.8416 45.6341 43.9057 43.9226 42.5438 41.7266C41.1818 39.5306 40.4548 36.9488 40.4548 34.3077H34Z" fill="current"/>
<path d="M63.619 46.5L72 55H63.619L56 49.2609L63.619 46.5Z" fill="current"/>
<path d="M17 20.3077C17 24.3242 18.1055 28.2505 20.1768 31.59C22.248 34.9296 25.1919 37.5325 28.6363 39.0696C32.0806 40.6066 35.8707 41.0088 39.5272 40.2252C43.1837 39.4416 46.5424 37.5075 49.1786 34.6674C51.8148 31.8273 53.6101 28.2088 54.3374 24.2695C55.0647 20.3302 54.6914 16.247 53.2647 12.5363C51.838 8.82553 49.422 5.6539 46.3222 3.42246C43.2223 1.19103 39.5779 -4.78961e-08 35.8498 0L35.8498 6.95406C38.3013 6.95406 40.6977 7.73723 42.7361 9.20455C44.7744 10.6719 46.3631 12.7574 47.3013 15.1975C48.2394 17.6375 48.4849 20.3225 48.0066 22.9129C47.5283 25.5032 46.3478 27.8826 44.6144 29.7501C42.8809 31.6177 40.6723 32.8895 38.2679 33.4047C35.8635 33.92 33.3713 33.6555 31.1064 32.6448C28.8416 31.6341 26.9057 29.9226 25.5438 27.7266C24.1818 25.5306 23.4548 22.9488 23.4548 20.3077H17Z" fill="current"/>
<path d="M46.619 32.5L55 41H46.619L39 35.2609L46.619 32.5Z" fill="current"/>
<path d="M0 0H31V4H4.96L0 0Z" fill="current"/>
<path d="M7 6H31V10H11.5714L7 6Z" fill="current"/>
<path d="M14 12H31V16H17.9667L14 12Z" fill="current"/>
<path d="M86.5284 39V9.90909H92.679V33.929H105.151V39H86.5284ZM118.968 39.4261C116.762 39.4261 114.853 38.9574 113.244 38.0199C111.643 37.0729 110.407 35.7566 109.536 34.071C108.665 32.3759 108.229 30.411 108.229 28.1761C108.229 25.9223 108.665 23.9527 109.536 22.267C110.407 20.572 111.643 19.2557 113.244 18.3182C114.853 17.3712 116.762 16.8977 118.968 16.8977C121.174 16.8977 123.078 17.3712 124.678 18.3182C126.288 19.2557 127.529 20.572 128.4 22.267C129.271 23.9527 129.707 25.9223 129.707 28.1761C129.707 30.411 129.271 32.3759 128.4 34.071C127.529 35.7566 126.288 37.0729 124.678 38.0199C123.078 38.9574 121.174 39.4261 118.968 39.4261ZM118.996 34.7386C120 34.7386 120.838 34.4545 121.511 33.8864C122.183 33.3087 122.69 32.5227 123.031 31.5284C123.381 30.5341 123.556 29.4025 123.556 28.1335C123.556 26.8646 123.381 25.733 123.031 24.7386C122.69 23.7443 122.183 22.9583 121.511 22.3807C120.838 21.803 120 21.5142 118.996 21.5142C117.983 21.5142 117.131 21.803 116.44 22.3807C115.758 22.9583 115.242 23.7443 114.891 24.7386C114.55 25.733 114.38 26.8646 114.38 28.1335C114.38 29.4025 114.55 30.5341 114.891 31.5284C115.242 32.5227 115.758 33.3087 116.44 33.8864C117.131 34.4545 117.983 34.7386 118.996 34.7386ZM143.471 47.6364C141.511 47.6364 139.83 47.3665 138.428 46.8267C137.036 46.2964 135.928 45.572 135.104 44.6534C134.281 43.7348 133.746 42.7027 133.499 41.5568L139.096 40.804C139.266 41.2396 139.536 41.6468 139.906 42.0256C140.275 42.4044 140.763 42.7074 141.369 42.9347C141.984 43.1714 142.732 43.2898 143.613 43.2898C144.929 43.2898 146.013 42.9678 146.866 42.3239C147.728 41.6894 148.158 40.6241 148.158 39.1278V35.1364H147.903C147.638 35.7424 147.24 36.3153 146.71 36.8551C146.179 37.3949 145.497 37.8352 144.664 38.1761C143.831 38.517 142.836 38.6875 141.681 38.6875C140.043 38.6875 138.551 38.3087 137.207 37.5511C135.871 36.7841 134.806 35.6146 134.011 34.0426C133.225 32.4612 132.832 30.4631 132.832 28.0483C132.832 25.5767 133.234 23.5123 134.039 21.8551C134.844 20.1979 135.914 18.9574 137.249 18.1335C138.594 17.3097 140.067 16.8977 141.667 16.8977C142.888 16.8977 143.911 17.1061 144.735 17.5227C145.559 17.9299 146.222 18.4413 146.724 19.0568C147.235 19.6629 147.628 20.2595 147.903 20.8466H148.13V17.1818H154.138V39.2131C154.138 41.0691 153.684 42.6222 152.775 43.8722C151.866 45.1222 150.606 46.0597 148.996 46.6847C147.396 47.3191 145.554 47.6364 143.471 47.6364ZM143.599 34.142C144.574 34.142 145.398 33.9006 146.07 33.4176C146.752 32.9252 147.273 32.2244 147.633 31.3153C148.002 30.3968 148.187 29.2983 148.187 28.0199C148.187 26.7415 148.007 25.6335 147.647 24.696C147.287 23.7491 146.766 23.0152 146.085 22.4943C145.403 21.9735 144.574 21.7131 143.599 21.7131C142.604 21.7131 141.766 21.983 141.085 22.5227C140.403 23.053 139.887 23.7917 139.536 24.7386C139.186 25.6856 139.011 26.7794 139.011 28.0199C139.011 29.2794 139.186 30.3684 139.536 31.2869C139.896 32.196 140.412 32.9015 141.085 33.4034C141.766 33.8958 142.604 34.142 143.599 34.142ZM158.954 39V17.1818H165.005V39H158.954ZM161.994 14.3693C161.094 14.3693 160.322 14.071 159.678 13.4744C159.044 12.8684 158.727 12.1439 158.727 11.3011C158.727 10.4678 159.044 9.75284 159.678 9.15625C160.322 8.55019 161.094 8.24716 161.994 8.24716C162.893 8.24716 163.66 8.55019 164.295 9.15625C164.939 9.75284 165.261 10.4678 165.261 11.3011C165.261 12.1439 164.939 12.8684 164.295 13.4744C163.66 14.071 162.893 14.3693 161.994 14.3693ZM188.006 23.4034L182.466 23.7443C182.371 23.2708 182.168 22.8447 181.855 22.4659C181.543 22.0777 181.131 21.7699 180.619 21.5426C180.117 21.3059 179.516 21.1875 178.815 21.1875C177.878 21.1875 177.087 21.3864 176.443 21.7841C175.799 22.1723 175.477 22.6932 175.477 23.3466C175.477 23.8674 175.686 24.3078 176.102 24.6676C176.519 25.0275 177.234 25.3163 178.247 25.5341L182.196 26.3295C184.317 26.7652 185.899 27.4659 186.94 28.4318C187.982 29.3977 188.503 30.6667 188.503 32.2386C188.503 33.6686 188.081 34.9233 187.239 36.0028C186.405 37.0824 185.259 37.9252 183.801 38.5312C182.352 39.1278 180.681 39.4261 178.787 39.4261C175.899 39.4261 173.598 38.8248 171.884 37.6222C170.179 36.41 169.18 34.7623 168.886 32.679L174.838 32.3665C175.018 33.2472 175.454 33.9195 176.145 34.3835C176.836 34.8381 177.722 35.0653 178.801 35.0653C179.862 35.0653 180.714 34.8617 181.358 34.4545C182.011 34.0379 182.343 33.5028 182.352 32.8494C182.343 32.3002 182.111 31.8504 181.656 31.5C181.202 31.1402 180.501 30.8655 179.554 30.6761L175.776 29.9233C173.645 29.4972 172.059 28.7585 171.017 27.7074C169.985 26.6562 169.469 25.3163 169.469 23.6875C169.469 22.286 169.848 21.0786 170.605 20.0653C171.372 19.0521 172.447 18.2708 173.83 17.7216C175.222 17.1723 176.85 16.8977 178.716 16.8977C181.472 16.8977 183.64 17.4801 185.222 18.6449C186.813 19.8097 187.741 21.3958 188.006 23.4034ZM203.918 17.1818V21.7273H190.779V17.1818H203.918ZM193.762 11.9545H199.813V32.2955C199.813 32.8542 199.898 33.2898 200.069 33.6023C200.239 33.9053 200.476 34.1184 200.779 34.2415C201.092 34.3646 201.451 34.4261 201.859 34.4261C202.143 34.4261 202.427 34.4025 202.711 34.3551C202.995 34.2983 203.213 34.2557 203.364 34.2273L204.316 38.7301C204.013 38.8248 203.587 38.9337 203.038 39.0568C202.488 39.1894 201.821 39.2699 201.035 39.2983C199.576 39.3551 198.298 39.161 197.2 38.7159C196.111 38.2708 195.263 37.5795 194.657 36.642C194.051 35.7045 193.753 34.5208 193.762 33.0909V11.9545ZM207.86 39V17.1818H213.911V39H207.86ZM210.9 14.3693C210 14.3693 209.228 14.071 208.585 13.4744C207.95 12.8684 207.633 12.1439 207.633 11.3011C207.633 10.4678 207.95 9.75284 208.585 9.15625C209.228 8.55019 210 8.24716 210.9 8.24716C211.799 8.24716 212.567 8.55019 213.201 9.15625C213.845 9.75284 214.167 10.4678 214.167 11.3011C214.167 12.1439 213.845 12.8684 213.201 13.4744C212.567 14.071 211.799 14.3693 210.9 14.3693ZM228.616 39.4261C226.382 39.4261 224.459 38.9527 222.849 38.0057C221.249 37.0492 220.018 35.7235 219.156 34.0284C218.304 32.3333 217.878 30.3826 217.878 28.1761C217.878 25.9413 218.309 23.9811 219.17 22.2955C220.042 20.6004 221.277 19.2794 222.878 18.3324C224.478 17.3759 226.382 16.8977 228.588 16.8977C230.491 16.8977 232.158 17.2434 233.588 17.9347C235.018 18.6259 236.15 19.5966 236.983 20.8466C237.816 22.0966 238.276 23.5644 238.361 25.25H232.651C232.49 24.161 232.063 23.285 231.372 22.6222C230.69 21.9498 229.795 21.6136 228.688 21.6136C227.75 21.6136 226.931 21.8693 226.23 22.3807C225.539 22.8826 224.999 23.6165 224.611 24.5824C224.223 25.5483 224.028 26.7178 224.028 28.0909C224.028 29.483 224.218 30.6667 224.597 31.642C224.985 32.6174 225.529 33.3608 226.23 33.8722C226.931 34.3835 227.75 34.6392 228.688 34.6392C229.379 34.6392 229.999 34.4972 230.548 34.2131C231.107 33.929 231.566 33.517 231.926 32.9773C232.295 32.428 232.537 31.7699 232.651 31.0028H238.361C238.266 32.6695 237.812 34.1373 236.997 35.4062C236.192 36.6657 235.08 37.6506 233.659 38.3608C232.239 39.071 230.558 39.4261 228.616 39.4261Z" fill="current"/>
</svg>
