<svg width="1024" height="1052" viewBox="0 0 1024 1052" fill="none" xmlns="http://www.w3.org/2000/svg">
<path d="M615.467 341.052H700.06C707.665 341.052 715.195 342.592 722.221 345.582C729.246 348.572 735.629 352.955 741.006 358.479C746.383 364.004 750.647 370.563 753.556 377.782C756.465 385 757.961 392.736 757.959 400.549V760.055C757.959 775.831 751.859 790.96 741.001 802.115C730.143 813.27 715.416 819.537 700.06 819.537H316.516C308.911 819.539 301.381 818.002 294.354 815.014C287.328 812.025 280.944 807.644 275.566 802.121C270.188 796.597 265.922 790.039 263.011 782.822C260.101 775.604 258.603 767.868 258.603 760.055V400.549C258.601 392.735 260.097 384.998 263.007 377.778C265.917 370.559 270.183 363.999 275.561 358.474C280.939 352.949 287.324 348.567 294.351 345.577C301.378 342.588 308.91 341.051 316.516 341.052H407.182" fill="#B22222"/>
<path d="M615.467 341.052H700.06C707.665 341.052 715.195 342.592 722.221 345.582C729.246 348.572 735.629 352.955 741.006 358.479C746.383 364.004 750.647 370.563 753.556 377.782C756.465 385 757.961 392.736 757.959 400.549V760.055C757.959 775.831 751.859 790.96 741.001 802.115C730.143 813.27 715.416 819.537 700.06 819.537H316.516C308.911 819.539 301.381 818.002 294.354 815.014C287.328 812.025 280.944 807.644 275.566 802.121C270.188 796.597 265.922 790.039 263.011 782.822C260.101 775.604 258.603 767.868 258.603 760.055V400.549C258.601 392.735 260.097 384.998 263.007 377.778C265.917 370.559 270.183 363.999 275.561 358.474C280.939 352.949 287.324 348.567 294.351 345.577C301.378 342.588 308.91 341.051 316.516 341.052H407.182" stroke="black" stroke-width="2" stroke-linecap="round" stroke-linejoin="round"/>
<path d="M512.882 446.486C570.056 446.486 616.405 398.87 616.405 340.132C616.405 281.394 570.056 233.778 512.882 233.778C455.707 233.778 409.358 281.394 409.358 340.132C409.358 398.87 455.707 446.486 512.882 446.486Z" fill="white"/>
<path d="M629.689 341.052H700.06C707.665 341.052 715.195 342.592 722.221 345.582C729.246 348.572 735.629 352.955 741.006 358.479C746.383 364.004 750.647 370.563 753.556 377.782C756.465 385 757.961 392.736 757.959 400.549V760.055C757.959 775.831 751.859 790.96 741.001 802.115C730.143 813.27 715.416 819.537 700.06 819.537H316.516C308.911 819.539 301.381 818.002 294.354 815.014C287.328 812.025 280.944 807.644 275.566 802.121C270.188 796.597 265.922 790.039 263.011 782.822C260.101 775.604 258.603 767.868 258.603 760.055V400.549C258.601 392.735 260.097 384.998 263.007 377.778C265.917 370.559 270.183 363.999 275.561 358.474C280.939 352.949 287.324 348.567 294.351 345.577C301.378 342.588 308.91 341.051 316.516 341.052H407.182" stroke="black" stroke-width="2" stroke-linecap="round" stroke-linejoin="round"/>
<path d="M512.882 446.486C570.056 446.486 616.405 398.87 616.405 340.132C616.405 281.394 570.056 233.778 512.882 233.778C455.707 233.778 409.358 281.394 409.358 340.132C409.358 398.87 455.707 446.486 512.882 446.486Z" stroke="black" stroke-width="2" stroke-linecap="round" stroke-linejoin="round"/>
<path d="M545.991 276.793C543.894 275.717 541.466 275.541 539.242 276.302C537.018 277.064 535.179 278.701 534.13 280.855L507.25 336.114C503.958 336.361 500.817 337.629 498.241 339.75C495.666 341.871 493.779 344.746 492.828 347.993C491.747 352.337 492.353 356.942 494.518 360.836C496.682 364.729 500.236 367.605 504.427 368.856C508.618 370.106 513.118 369.633 516.976 367.537C520.833 365.44 523.746 361.885 525.099 357.622C525.726 355.361 525.872 352.988 525.529 350.664C525.185 348.339 524.359 346.118 523.107 344.15L549.945 288.979C550.992 286.824 551.164 284.33 550.422 282.045C549.681 279.76 548.087 277.871 545.991 276.793Z" fill="black"/>
<path d="M656.028 351.368C657.068 357.8 657.592 364.31 657.593 370.83C657.593 444.163 592.313 503.601 511.815 503.601C431.317 503.601 366.08 444.178 366.08 370.83C366.075 363.408 366.746 356.002 368.085 348.709" stroke="black" stroke-width="2" stroke-linecap="round" stroke-linejoin="round"/>
</svg>
