<svg width="1024" height="1024" viewBox="0 0 1024 1024" fill="none" xmlns="http://www.w3.org/2000/svg">
<path d="M79 412H335C339.4 412 343 415.6 343 420V468C343 472.4 339.4 476 335 476H79C74.6 476 71 472.4 71 468V420C71 415.6 74.6 412 79 412ZM213 548H335C339.4 548 343 551.6 343 556V604C343 608.4 339.4 612 335 612H213C208.6 612 205 608.4 205 604V556C205 551.6 208.6 548 213 548ZM546.7 322.5H590C596.2 322.5 601.2 327.5 601.2 333.7V581.7C601.2 585.3 599.5 588.6 596.6 590.7L447.7 699.3C442.7 702.9 435.7 701.9 432.1 696.9L406.4 661.8V661.7C402.8 656.7 403.9 649.7 408.9 646.1L535.6 554.5V333.7C535.5 327.5 540.6 322.5 546.7 322.5V322.5Z" fill="#B22222"/>
<path d="M219.2 673.9H277C282.6 673.9 287.9 676.8 290.9 681.6C303.6 701.7 318.4 720.3 335.4 737.3C364.7 766.6 398.8 789.6 436.7 805.6C476 822.2 517.7 830.6 560.7 830.6C603.8 830.6 645.5 822.2 684.7 805.6C722.6 789.6 756.7 766.6 786 737.3C815.3 708 838.3 673.9 854.3 636C870.9 596.8 879.3 555.1 879.3 512C879.3 468.9 870.9 427.3 854.3 388C838.3 350.1 815.3 316 786 286.7C756.7 257.4 722.6 234.4 684.7 218.4C645.5 201.8 603.7 193.4 560.7 193.4C517.6 193.4 475.9 201.8 436.7 218.4C398.8 234.4 364.7 257.4 335.4 286.7C318.4 303.7 303.6 322.3 290.9 342.4C287.9 347.2 282.6 350.1 277 350.1H219.2C212.3 350.1 207.9 342.9 211 336.8C276.2 207.1 408.4 122.8 556 121.1C772.1 118.4 951.6 295.3 952 511.2C952.4 727.5 777.1 903 560.8 903C411.3 903 276.9 818.4 211 687.2C207.9 681.1 212.4 673.9 219.2 673.9Z" fill="#B22222"/>
</svg>
