<svg width="1024" height="1024" viewBox="0 0 1024 1024" fill="none" xmlns="http://www.w3.org/2000/svg">
<g clip-path="url(#clip0_9_2)">
<path fill-rule="evenodd" clip-rule="evenodd" d="M743.04 613.632C730.325 607.275 667.989 576.64 656.384 572.373C644.779 568.149 636.331 566.059 627.84 578.773C619.392 591.403 595.115 619.989 587.733 628.437C580.309 636.928 572.928 637.952 560.256 631.637C547.584 625.237 506.709 611.883 458.283 568.704C420.608 535.083 395.136 493.568 387.755 480.853C380.373 468.181 386.944 461.312 393.301 454.997C399.019 449.323 405.973 440.192 412.331 432.811C418.688 425.387 420.779 420.096 425.003 411.605C429.269 403.157 427.136 395.776 423.936 389.419C420.779 383.061 395.435 320.64 384.853 295.253C374.571 270.549 364.117 273.92 356.352 273.493C348.928 273.152 340.48 273.067 332.032 273.067C323.584 273.067 309.845 276.224 298.24 288.939C286.592 301.611 253.867 332.288 253.867 394.709C253.867 457.088 299.264 517.376 305.621 525.867C311.979 534.315 395.008 662.4 522.197 717.312C552.491 730.368 576.085 738.176 594.475 743.979C624.853 753.664 652.501 752.299 674.347 749.013C698.667 745.387 749.355 718.336 759.936 688.725C770.475 659.115 770.475 633.728 767.317 628.437C764.16 623.147 755.712 619.989 742.997 613.632H743.04ZM511.701 929.493H511.531C435.986 929.507 361.829 909.199 296.832 870.698L281.472 861.568L121.813 903.466L164.437 747.819L154.411 731.861C112.177 664.633 89.8259 586.828 89.9413 507.435C90.0267 274.901 279.211 85.7173 511.872 85.7173C624.512 85.7173 730.411 129.664 810.027 209.365C849.296 248.473 880.421 294.979 901.601 346.193C922.781 397.407 933.595 452.313 933.419 507.733C933.333 740.267 744.149 929.493 511.701 929.493V929.493ZM870.613 148.821C823.603 101.501 767.668 63.9802 706.052 38.4342C644.435 12.8881 578.361 -0.175659 511.659 8.87323e-06C232.021 8.87323e-06 4.352 227.627 4.26667 507.392C4.13709 596.427 27.4933 683.92 71.9787 761.045L0 1024L268.971 953.429C343.376 993.968 426.756 1015.21 511.488 1015.21H511.701C791.339 1015.21 1019.01 787.584 1019.09 507.776C1019.3 441.1 1006.28 375.044 980.797 313.431C955.311 251.817 917.861 195.869 870.613 148.821" fill="white"/>
</g>
<defs>
<clipPath id="clip0_9_2">
<rect width="1024" height="1024" fill="white"/>
</clipPath>
</defs>
</svg>
